<?xml version="1.0" encoding="UTF-8"?>
<svg viewBox="0 0 600 400" xmlns="http://www.w3.org/2000/svg">
  <defs>
    <marker id="arrowhead" markerWidth="10" markerHeight="7" refX="0" refY="3.5" orient="auto">
      <polygon points="0 0, 10 3.5, 0 7" fill="#666" />
    </marker>
  </defs>
  
  <!-- Title -->
  <text x="300" y="30" font-family="Arial" font-size="20" font-weight="bold" text-anchor="middle">Densely Connected Network</text>
  
  <!-- Connections: Drawing lines between all nodes to create a densely connected network -->
  <!-- 1 to all other nodes -->
  <line x1="150" y1="150" x2="300" y2="90" stroke="#666" stroke-width="2" />
  <line x1="150" y1="150" x2="450" y2="150" stroke="#666" stroke-width="2" />
  <line x1="150" y1="150" x2="450" y2="250" stroke="#666" stroke-width="2" />
  <line x1="150" y1="150" x2="300" y2="310" stroke="#666" stroke-width="2" />
  <line x1="150" y1="150" x2="150" y2="250" stroke="#666" stroke-width="2" />
  <line x1="150" y1="150" x2="225" y2="200" stroke="#666" stroke-width="2" />
  <line x1="150" y1="150" x2="375" y2="200" stroke="#666" stroke-width="2" />
  <line x1="150" y1="150" x2="300" y2="200" stroke="#666" stroke-width="2" />
  
  <!-- 2 to others -->
  <line x1="300" y1="90" x2="450" y2="150" stroke="#666" stroke-width="2" />
  <line x1="300" y1="90" x2="450" y2="250" stroke="#666" stroke-width="2" />
  <line x1="300" y1="90" x2="300" y2="310" stroke="#666" stroke-width="2" />
  <line x1="300" y1="90" x2="150" y2="250" stroke="#666" stroke-width="2" />
  <line x1="300" y1="90" x2="225" y2="200" stroke="#666" stroke-width="2" />
  <line x1="300" y1="90" x2="375" y2="200" stroke="#666" stroke-width="2" />
  <line x1="300" y1="90" x2="300" y2="200" stroke="#666" stroke-width="2" />
  
  <!-- 3 to others -->
  <line x1="450" y1="150" x2="450" y2="250" stroke="#666" stroke-width="2" />
  <line x1="450" y1="150" x2="300" y2="310" stroke="#666" stroke-width="2" />
  <line x1="450" y1="150" x2="150" y2="250" stroke="#666" stroke-width="2" />
  <line x1="450" y1="150" x2="225" y2="200" stroke="#666" stroke-width="2" />
  <line x1="450" y1="150" x2="375" y2="200" stroke="#666" stroke-width="2" />
  <line x1="450" y1="150" x2="300" y2="200" stroke="#666" stroke-width="2" />
  
  <!-- 4 to others -->
  <line x1="450" y1="250" x2="300" y2="310" stroke="#666" stroke-width="2" />
  <line x1="450" y1="250" x2="150" y2="250" stroke="#666" stroke-width="2" />
  <line x1="450" y1="250" x2="225" y2="200" stroke="#666" stroke-width="2" />
  <line x1="450" y1="250" x2="375" y2="200" stroke="#666" stroke-width="2" />
  <line x1="450" y1="250" x2="300" y2="200" stroke="#666" stroke-width="2" />
  
  <!-- 5 to others -->
  <line x1="300" y1="310" x2="150" y2="250" stroke="#666" stroke-width="2" />
  <line x1="300" y1="310" x2="225" y2="200" stroke="#666" stroke-width="2" />
  <line x1="300" y1="310" x2="375" y2="200" stroke="#666" stroke-width="2" />
  <line x1="300" y1="310" x2="300" y2="200" stroke="#666" stroke-width="2" />
  
  <!-- 6 to others -->
  <line x1="150" y1="250" x2="225" y2="200" stroke="#666" stroke-width="2" />
  <line x1="150" y1="250" x2="375" y2="200" stroke="#666" stroke-width="2" />
  <line x1="150" y1="250" x2="300" y2="200" stroke="#666" stroke-width="2" />
  
  <!-- 7 to others -->
  <line x1="225" y1="200" x2="375" y2="200" stroke="#666" stroke-width="2" />
  <line x1="225" y1="200" x2="300" y2="200" stroke="#666" stroke-width="2" />
  
  <!-- 8 to 9 -->
  <line x1="375" y1="200" x2="300" y2="200" stroke="#666" stroke-width="2" />

  <!-- Node 1 -->
  <circle cx="150" cy="150" r="20" fill="#3498db" />
  <text x="150" y="155" font-family="Arial" font-size="15" text-anchor="middle" fill="white">1</text>
  
  <!-- Node 2 -->
  <circle cx="300" cy="90" r="20" fill="#3498db" />
  <text x="300" y="95" font-family="Arial" font-size="15" text-anchor="middle" fill="white">2</text>
  
  <!-- Node 3 -->
  <circle cx="450" cy="150" r="20" fill="#3498db" />
  <text x="450" y="155" font-family="Arial" font-size="15" text-anchor="middle" fill="white">3</text>
  
  <!-- Node 4 -->
  <circle cx="450" cy="250" r="20" fill="#3498db" />
  <text x="450" y="255" font-family="Arial" font-size="15" text-anchor="middle" fill="white">4</text>
  
  <!-- Node 5 -->
  <circle cx="300" cy="310" r="20" fill="#3498db" />
  <text x="300" y="315" font-family="Arial" font-size="15" text-anchor="middle" fill="white">5</text>
  
  <!-- Node 6 -->
  <circle cx="150" cy="250" r="20" fill="#3498db" />
  <text x="150" y="255" font-family="Arial" font-size="15" text-anchor="middle" fill="white">6</text>
  
  <!-- Node 7 -->
  <circle cx="225" cy="200" r="20" fill="#3498db" />
  <text x="225" y="205" font-family="Arial" font-size="15" text-anchor="middle" fill="white">7</text>
  
  <!-- Node 8 -->
  <circle cx="375" cy="200" r="20" fill="#3498db" />
  <text x="375" y="205" font-family="Arial" font-size="15" text-anchor="middle" fill="white">8</text>
  
  <!-- Node 9 -->
  <circle cx="300" cy="200" r="20" fill="#e74c3c" />
  <text x="300" y="205" font-family="Arial" font-size="15" text-anchor="middle" fill="white">9</text>

  <!-- Legend -->
  <circle cx="470" cy="360" r="10" fill="#3498db" />
  <text x="485" y="365" font-family="Arial" font-size="14" text-anchor="start">Regular Node</text>
  
  <circle cx="470" cy="385" r="10" fill="#e74c3c" />
  <text x="485" y="390" font-family="Arial" font-size="14" text-anchor="start">Central Hub</text>
  
  <text x="300" y="350" font-family="Arial" font-size="14" font-style="italic" text-anchor="middle">All nodes are connected to each other (fully connected topology)</text>
</svg>